<svg width="1404" height="1990" viewBox="0 0 1404 1990" fill="none" xmlns="http://www.w3.org/2000/svg">
<g filter="url(#filter0_i_55_2)">
<circle cx="100" cy="205" r="100" fill="url(#paint0_linear_55_2)"/>
</g>
<g filter="url(#filter1_i_55_2)">
<circle cx="1040" cy="51" r="51" fill="url(#paint1_linear_55_2)"/>
</g>
<g filter="url(#filter2_if_55_2)">
<circle cx="1355" cy="456" r="200" fill="url(#paint2_linear_55_2)"/>
</g>
<path d="M1044.87 388.5C1045.82 387.848 1046.01 386.631 1045.31 385.783C1044.6 384.934 1043.26 384.775 1042.31 385.428L1044.87 388.5ZM1030.19 468.445L1030.29 470.379L1030.19 468.445ZM955.488 478.343L978.789 470.632L960.039 456.298L955.488 478.343ZM1042.31 385.428C1018.23 402.025 1002.51 423.443 998.997 440.667C997.239 449.296 998.506 457.162 1003.78 462.711C1009.07 468.278 1017.95 471.057 1030.29 470.379L1030.09 466.511C1018.51 467.147 1011.16 464.499 1007.04 460.161C1002.9 455.804 1001.58 449.288 1003.2 441.32C1006.46 425.349 1021.35 404.712 1044.87 388.5L1042.31 385.428ZM1030.29 470.379C1042.44 469.712 1049.92 463.912 1052.58 456.6C1055.19 449.419 1053.03 441.077 1046.69 435.485C1040.27 429.822 1029.82 427.162 1016.21 430.802C1002.67 434.422 985.939 444.272 966.438 463.671L969.583 466.259C988.802 447.141 1004.89 437.856 1017.37 434.517C1029.78 431.197 1038.56 433.755 1043.69 438.279C1048.9 442.873 1050.61 449.689 1048.52 455.431C1046.47 461.042 1040.68 465.93 1030.09 466.511L1030.29 470.379Z" fill="#175CE1"/>
<path d="M1279.04 676.472C1279.31 675.495 1280.69 675.495 1280.96 676.472L1286.36 695.926C1286.44 696.2 1286.63 696.429 1286.88 696.555L1302.18 704.103C1302.93 704.47 1302.93 705.53 1302.18 705.897L1286.88 713.445C1286.63 713.571 1286.44 713.8 1286.36 714.074L1280.96 733.528C1280.69 734.505 1279.31 734.505 1279.04 733.528L1273.64 714.074C1273.56 713.8 1273.37 713.571 1273.12 713.445L1257.82 705.897C1257.07 705.53 1257.07 704.47 1257.82 704.103L1273.12 696.555C1273.37 696.429 1273.56 696.2 1273.64 695.926L1279.04 676.472Z" fill="#F4B41A"/>
<path d="M144.036 750.472C144.307 749.495 145.693 749.495 145.964 750.472L151.362 769.926C151.439 770.2 151.628 770.429 151.884 770.555L167.182 778.103C167.926 778.47 167.926 779.53 167.182 779.897L151.884 787.445C151.628 787.571 151.439 787.8 151.362 788.074L145.964 807.528C145.693 808.505 144.307 808.505 144.036 807.528L138.638 788.074C138.561 787.8 138.372 787.571 138.116 787.445L122.818 779.897C122.074 779.53 122.074 778.47 122.818 778.103L138.116 770.555C138.372 770.429 138.561 770.2 138.638 769.926L144.036 750.472Z" fill="#F4B41A"/>
<path d="M441.041 93.2391C441.324 92.2843 442.676 92.2843 442.959 93.2391L446.193 104.164C446.275 104.44 446.471 104.667 446.732 104.788L456.038 109.092C456.811 109.45 456.811 110.55 456.038 110.908L446.732 115.212C446.471 115.333 446.275 115.56 446.193 115.836L442.959 126.761C442.676 127.716 441.324 127.716 441.041 126.761L437.807 115.836C437.725 115.56 437.529 115.333 437.268 115.212L427.962 110.908C427.189 110.55 427.189 109.45 427.962 109.092L437.268 104.788C437.529 104.667 437.725 104.44 437.807 104.164L441.041 93.2391Z" fill="#F4B41A"/>
<path d="M1256.04 1931.47C1256.31 1930.5 1257.69 1930.5 1257.96 1931.47L1263.36 1950.93C1263.44 1951.2 1263.63 1951.43 1263.88 1951.56L1279.18 1959.1C1279.93 1959.47 1279.93 1960.53 1279.18 1960.9L1263.88 1968.44C1263.63 1968.57 1263.44 1968.8 1263.36 1969.07L1257.96 1988.53C1257.69 1989.5 1256.31 1989.5 1256.04 1988.53L1250.64 1969.07C1250.56 1968.8 1250.37 1968.57 1250.12 1968.44L1234.82 1960.9C1234.07 1960.53 1234.07 1959.47 1234.82 1959.1L1250.12 1951.56C1250.37 1951.43 1250.56 1951.2 1250.64 1950.93L1256.04 1931.47Z" fill="#F4B41A"/>
<path d="M582.036 1656.47C582.307 1655.5 583.693 1655.5 583.964 1656.47L589.362 1675.93C589.439 1676.2 589.628 1676.43 589.884 1676.56L605.182 1684.1C605.926 1684.47 605.926 1685.53 605.182 1685.9L589.884 1693.44C589.628 1693.57 589.439 1693.8 589.362 1694.07L583.964 1713.53C583.693 1714.5 582.307 1714.5 582.036 1713.53L576.638 1694.07C576.561 1693.8 576.372 1693.57 576.116 1693.44L560.818 1685.9C560.074 1685.53 560.074 1684.47 560.818 1684.1L576.116 1676.56C576.372 1676.43 576.561 1676.2 576.638 1675.93L582.036 1656.47Z" fill="#F4B41A"/>
<path d="M568.5 1035C569.5 1040.67 574.55 1052 586.75 1052" stroke="#175CE1" stroke-width="3.75" stroke-linecap="round"/>
<path d="M1233.25 1013C1232.25 1006.67 1227.2 994 1215 994" stroke="#175CE1" stroke-width="3.75" stroke-linecap="round"/>
<path d="M158.5 1352.86C181.733 1351.78 315.807 1349.28 326.613 1352.86C340.121 1357.34 194.97 1365.93 187.676 1369.15C181.841 1371.73 301.678 1377.57 308.702 1378.29C315.726 1379 225.226 1390.36 226.307 1415" stroke="#4A3AFF" stroke-width="5.55173" stroke-linecap="round"/>
<g filter="url(#filter3_i_55_2)">
<circle cx="153" cy="1049" r="51" fill="url(#paint3_linear_55_2)"/>
</g>
<path d="M394.041 1165.24C394.324 1164.28 395.676 1164.28 395.959 1165.24L399.193 1176.16C399.275 1176.44 399.471 1176.67 399.732 1176.79L409.038 1181.09C409.811 1181.45 409.811 1182.55 409.038 1182.91L399.732 1187.21C399.471 1187.33 399.275 1187.56 399.193 1187.84L395.959 1198.76C395.676 1199.72 394.324 1199.72 394.041 1198.76L390.807 1187.84C390.725 1187.56 390.529 1187.33 390.268 1187.21L380.962 1182.91C380.189 1182.55 380.189 1181.45 380.962 1181.09L390.268 1176.79C390.529 1176.67 390.725 1176.44 390.807 1176.16L394.041 1165.24Z" fill="#F4B41A"/>
<defs>
<filter id="filter0_i_55_2" x="0" y="105" width="202" height="204" filterUnits="userSpaceOnUse" color-interpolation-filters="sRGB">
<feFlood flood-opacity="0" result="BackgroundImageFix"/>
<feBlend mode="normal" in="SourceGraphic" in2="BackgroundImageFix" result="shape"/>
<feColorMatrix in="SourceAlpha" type="matrix" values="0 0 0 0 0 0 0 0 0 0 0 0 0 0 0 0 0 0 127 0" result="hardAlpha"/>
<feOffset dx="2" dy="4"/>
<feGaussianBlur stdDeviation="50"/>
<feComposite in2="hardAlpha" operator="arithmetic" k2="-1" k3="1"/>
<feColorMatrix type="matrix" values="0 0 0 0 0 0 0 0 0 0.113725 0 0 0 0 0.431373 0 0 0 1 0"/>
<feBlend mode="normal" in2="shape" result="effect1_innerShadow_55_2"/>
</filter>
<filter id="filter1_i_55_2" x="989" y="0" width="103.02" height="104.04" filterUnits="userSpaceOnUse" color-interpolation-filters="sRGB">
<feFlood flood-opacity="0" result="BackgroundImageFix"/>
<feBlend mode="normal" in="SourceGraphic" in2="BackgroundImageFix" result="shape"/>
<feColorMatrix in="SourceAlpha" type="matrix" values="0 0 0 0 0 0 0 0 0 0 0 0 0 0 0 0 0 0 127 0" result="hardAlpha"/>
<feOffset dx="1.02" dy="2.04"/>
<feGaussianBlur stdDeviation="25.5"/>
<feComposite in2="hardAlpha" operator="arithmetic" k2="-1" k3="1"/>
<feColorMatrix type="matrix" values="0 0 0 0 0 0 0 0 0 0.113725 0 0 0 0 0.431373 0 0 0 1 0"/>
<feBlend mode="normal" in2="shape" result="effect1_innerShadow_55_2"/>
</filter>
<filter id="filter2_if_55_2" x="1125" y="226" width="460" height="460" filterUnits="userSpaceOnUse" color-interpolation-filters="sRGB">
<feFlood flood-opacity="0" result="BackgroundImageFix"/>
<feBlend mode="normal" in="SourceGraphic" in2="BackgroundImageFix" result="shape"/>
<feColorMatrix in="SourceAlpha" type="matrix" values="0 0 0 0 0 0 0 0 0 0 0 0 0 0 0 0 0 0 127 0" result="hardAlpha"/>
<feOffset dx="4" dy="8"/>
<feGaussianBlur stdDeviation="100"/>
<feComposite in2="hardAlpha" operator="arithmetic" k2="-1" k3="1"/>
<feColorMatrix type="matrix" values="0 0 0 0 0 0 0 0 0 0.113725 0 0 0 0 0.431373 0 0 0 1 0"/>
<feBlend mode="normal" in2="shape" result="effect1_innerShadow_55_2"/>
<feGaussianBlur stdDeviation="15" result="effect2_foregroundBlur_55_2"/>
</filter>
<filter id="filter3_i_55_2" x="102" y="998" width="103.02" height="104.04" filterUnits="userSpaceOnUse" color-interpolation-filters="sRGB">
<feFlood flood-opacity="0" result="BackgroundImageFix"/>
<feBlend mode="normal" in="SourceGraphic" in2="BackgroundImageFix" result="shape"/>
<feColorMatrix in="SourceAlpha" type="matrix" values="0 0 0 0 0 0 0 0 0 0 0 0 0 0 0 0 0 0 127 0" result="hardAlpha"/>
<feOffset dx="1.02" dy="2.04"/>
<feGaussianBlur stdDeviation="25.5"/>
<feComposite in2="hardAlpha" operator="arithmetic" k2="-1" k3="1"/>
<feColorMatrix type="matrix" values="0 0 0 0 0 0 0 0 0 0.113725 0 0 0 0 0.431373 0 0 0 1 0"/>
<feBlend mode="normal" in2="shape" result="effect1_innerShadow_55_2"/>
</filter>
<linearGradient id="paint0_linear_55_2" x1="10" y1="244" x2="196.289" y2="252.775" gradientUnits="userSpaceOnUse">
<stop stop-color="#5404FF"/>
<stop offset="0.899616" stop-color="#BA2AD1"/>
</linearGradient>
<linearGradient id="paint1_linear_55_2" x1="994.1" y1="70.89" x2="1089.11" y2="75.3654" gradientUnits="userSpaceOnUse">
<stop stop-color="#5404FF"/>
<stop offset="0.899616" stop-color="#BA2AD1"/>
</linearGradient>
<linearGradient id="paint2_linear_55_2" x1="1175" y1="534" x2="1547.58" y2="551.551" gradientUnits="userSpaceOnUse">
<stop stop-color="#5404FF"/>
<stop offset="0.899616" stop-color="#BA2AD1"/>
</linearGradient>
<linearGradient id="paint3_linear_55_2" x1="107.1" y1="1068.89" x2="202.108" y2="1073.37" gradientUnits="userSpaceOnUse">
<stop stop-color="#5404FF"/>
<stop offset="0.899616" stop-color="#BA2AD1"/>
</linearGradient>
</defs>
</svg>
