<svg width="111" height="32" viewBox="0 0 111 32" fill="none" xmlns="http://www.w3.org/2000/svg">
<circle cx="94.5" cy="16" r="16" fill="#A75FD2"/>
<path d="M89.9096 20.2002V16.0082C89.9096 14.5522 89.8936 13.4482 89.7816 12.7442L92.7416 20.2002H94.6296L97.6056 12.7282C97.4936 13.5602 97.4936 14.2482 97.4936 16.6002V20.2002H99.4776V8.5042H97.4616L93.6856 17.8162L89.9096 8.5042H87.9256V20.2002H89.9096Z" fill="#FCFCFC"/>
<circle cx="68.5" cy="16" r="16" fill="#175CE1"/>
<path d="M64.0644 16.9282C64.0644 19.6802 65.8564 21.3922 68.6884 21.3922C71.5364 21.3922 73.3284 19.6642 73.3284 16.9282V9.5042H71.2804V16.8002C71.2804 18.4642 70.3524 19.4082 68.6884 19.4082C67.0244 19.4082 66.1124 18.4802 66.1124 16.8002V9.5042H64.0644V16.9282Z" fill="#FCFCFC"/>
<circle cx="42.5" cy="16" r="16" fill="#A75FD2"/>
<path d="M47.7789 15.3442C47.7789 11.7762 45.4429 9.2962 42.0989 9.2962C38.7549 9.2962 36.4349 11.7922 36.4349 15.3442C36.4349 18.9122 38.7389 21.3922 42.0829 21.3922C45.4429 21.3922 47.7789 18.8962 47.7789 15.3442ZM45.6189 15.3442C45.6189 17.8082 44.2429 19.4242 42.0989 19.4242C39.9549 19.4242 38.5789 17.8402 38.5789 15.3442C38.5789 12.8482 39.9549 11.2642 42.0989 11.2642C44.2429 11.2642 45.6189 12.8482 45.6189 15.3442Z" fill="#FCFCFC"/>
<circle cx="16.5" cy="16" r="16" fill="#175CE1"/>
<path d="M16.2582 10.2322C17.6662 10.2322 18.8502 10.8722 19.2182 12.2482H21.3782C21.0422 9.86419 18.9782 8.31219 16.3062 8.31219C12.7862 8.31219 10.4662 10.8402 10.4662 14.3922C10.4662 17.9922 12.7542 20.3762 16.0342 20.3762C17.6182 20.3762 18.9462 19.7522 19.5862 18.8562L19.7142 20.2002H21.4422V13.6242H16.0022V15.4322H19.5382V15.4802C19.5382 17.3522 18.3062 18.4722 16.2742 18.4722C14.1142 18.4722 12.6102 17.0482 12.6102 14.4402C12.6102 11.9122 13.9382 10.2322 16.2582 10.2322Z" fill="#FCFCFC"/>
</svg>
