<svg width="24" height="24" viewBox="0 0 24 24" fill="none" xmlns="http://www.w3.org/2000/svg">
<path d="M10.001 15.5C9.59098 15.5 9.25098 15.84 9.25098 16.25V17.75C9.25098 18.16 9.59098 18.5 10.001 18.5C10.411 18.5 10.751 18.16 10.751 17.75V16.25C10.751 15.84 10.411 15.5 10.001 15.5Z" fill="white"/>
<path d="M22.001 21.2488H21.001V9.97875C21.001 9.35875 20.721 8.77875 20.231 8.39875L13.231 2.95875C12.511 2.38875 11.491 2.38875 10.771 2.95875L3.77098 8.39875C3.28098 8.77875 3.00098 9.35875 3.00098 9.96875L2.95098 21.2488H2.00098C1.80206 21.2488 1.6113 21.3278 1.47065 21.4684C1.32999 21.6091 1.25098 21.7998 1.25098 21.9988C1.25098 22.1977 1.32999 22.3884 1.47065 22.5291C1.6113 22.6697 1.80206 22.7488 2.00098 22.7488H22.001C22.1999 22.7488 22.3907 22.6697 22.5313 22.5291C22.672 22.3884 22.751 22.1977 22.751 21.9988C22.751 21.7998 22.672 21.6091 22.5313 21.4684C22.3907 21.3278 22.1999 21.2488 22.001 21.2488ZM10.501 6.74875H13.501C13.911 6.74875 14.251 7.08875 14.251 7.49875C14.251 7.90875 13.911 8.24875 13.501 8.24875H10.501C10.091 8.24875 9.75098 7.90875 9.75098 7.49875C9.75098 7.08875 10.091 6.74875 10.501 6.74875ZM17.001 21.2488H7.00098V12.4987C7.00098 11.6687 7.67098 10.9987 8.50098 10.9987H15.501C16.331 10.9987 17.001 11.6687 17.001 12.4987V21.2488Z" fill="white"/>
</svg>
