<svg width="226" height="46" viewBox="0 0 226 46" fill="none" xmlns="http://www.w3.org/2000/svg">
<path d="M0.12 35V0.439999H6.264V35H0.12Z" fill="white"/>
<path d="M37.4002 4.16992C34.3835 4.16992 31.6835 5.63659 30.0002 7.88659C29.1404 6.73461 28.0239 5.79891 26.7394 5.15375C25.4549 4.50858 24.0376 4.17173 22.6002 4.16992C17.4835 4.16992 13.3335 8.33659 13.3335 13.4866C13.3335 15.4699 13.6502 17.3033 14.2002 19.0033C16.8335 27.3366 24.9502 32.3199 28.9668 33.6866C29.5335 33.8866 30.4668 33.8866 31.0335 33.6866C35.0502 32.3199 43.1668 27.3366 45.8002 19.0033C46.3502 17.3033 46.6668 15.4699 46.6668 13.4866C46.6668 8.33659 42.5168 4.16992 37.4002 4.16992Z" fill="url(#paint0_linear_55_2)"/>
<path d="M56.096 45.56L61.616 33.416H60.176L50.912 11.192H57.584L64.256 27.944L71.216 11.192H77.744L62.624 45.56H56.096ZM88.0936 35.576C86.0456 35.576 84.3656 35.256 83.0536 34.616C81.7416 33.944 80.7656 33.064 80.1256 31.976C79.4856 30.888 79.1656 29.688 79.1656 28.376C79.1656 26.168 80.0296 24.376 81.7576 23C83.4856 21.624 86.0776 20.936 89.5336 20.936H95.5816V20.36C95.5816 18.728 95.1176 17.528 94.1896 16.76C93.2616 15.992 92.1096 15.608 90.7336 15.608C89.4856 15.608 88.3976 15.912 87.4696 16.52C86.5416 17.096 85.9656 17.96 85.7416 19.112H79.7416C79.9016 17.384 80.4776 15.88 81.4696 14.6C82.4936 13.32 83.8056 12.344 85.4056 11.672C87.0056 10.968 88.7976 10.616 90.7816 10.616C94.1736 10.616 96.8456 11.464 98.7976 13.16C100.75 14.856 101.726 17.256 101.726 20.36V35H96.4936L95.9176 31.16C95.2136 32.44 94.2216 33.496 92.9416 34.328C91.6936 35.16 90.0776 35.576 88.0936 35.576ZM89.4856 30.776C91.2456 30.776 92.6056 30.2 93.5656 29.048C94.5576 27.896 95.1816 26.472 95.4376 24.776H90.2056C88.5736 24.776 87.4056 25.08 86.7016 25.688C85.9976 26.264 85.6456 26.984 85.6456 27.848C85.6456 28.776 85.9976 29.496 86.7016 30.008C87.4056 30.52 88.3336 30.776 89.4856 30.776ZM107.589 35V0.439999H113.733V35H107.589ZM134.123 35.576C132.331 35.576 130.763 35.24 129.419 34.568C128.075 33.896 126.987 32.952 126.155 31.736L125.483 35H120.011V0.439999H126.155V14.6C126.923 13.544 127.931 12.616 129.179 11.816C130.459 11.016 132.107 10.616 134.123 10.616C136.363 10.616 138.363 11.16 140.123 12.248C141.883 13.336 143.275 14.824 144.299 16.712C145.323 18.6 145.835 20.744 145.835 23.144C145.835 25.544 145.323 27.688 144.299 29.576C143.275 31.432 141.883 32.904 140.123 33.992C138.363 35.048 136.363 35.576 134.123 35.576ZM132.827 30.2C134.779 30.2 136.395 29.544 137.675 28.232C138.955 26.92 139.595 25.224 139.595 23.144C139.595 21.064 138.955 19.352 137.675 18.008C136.395 16.664 134.779 15.992 132.827 15.992C130.843 15.992 129.211 16.664 127.931 18.008C126.683 19.32 126.059 21.016 126.059 23.096C126.059 25.176 126.683 26.888 127.931 28.232C129.211 29.544 130.843 30.2 132.827 30.2ZM159.531 35.576C157.483 35.576 155.803 35.256 154.491 34.616C153.179 33.944 152.203 33.064 151.563 31.976C150.923 30.888 150.603 29.688 150.603 28.376C150.603 26.168 151.467 24.376 153.195 23C154.923 21.624 157.515 20.936 160.971 20.936H167.019V20.36C167.019 18.728 166.555 17.528 165.627 16.76C164.699 15.992 163.547 15.608 162.171 15.608C160.923 15.608 159.835 15.912 158.907 16.52C157.979 17.096 157.403 17.96 157.179 19.112H151.179C151.339 17.384 151.915 15.88 152.907 14.6C153.931 13.32 155.243 12.344 156.843 11.672C158.443 10.968 160.235 10.616 162.219 10.616C165.611 10.616 168.283 11.464 170.235 13.16C172.187 14.856 173.163 17.256 173.163 20.36V35H167.931L167.355 31.16C166.651 32.44 165.659 33.496 164.379 34.328C163.131 35.16 161.515 35.576 159.531 35.576ZM160.923 30.776C162.683 30.776 164.043 30.2 165.003 29.048C165.995 27.896 166.619 26.472 166.875 24.776H161.643C160.011 24.776 158.843 25.08 158.139 25.688C157.435 26.264 157.083 26.984 157.083 27.848C157.083 28.776 157.435 29.496 158.139 30.008C158.843 30.52 159.771 30.776 160.923 30.776ZM177.49 35V30.056L189.634 16.28H177.634V11.192H196.642V16.136L184.306 29.912H196.882V35H177.49ZM213.563 35.576C211.163 35.576 209.035 35.064 207.179 34.04C205.323 33.016 203.867 31.576 202.811 29.72C201.755 27.864 201.227 25.72 201.227 23.288C201.227 20.824 201.739 18.632 202.763 16.712C203.819 14.792 205.259 13.304 207.083 12.248C208.939 11.16 211.115 10.616 213.611 10.616C215.947 10.616 218.011 11.128 219.803 12.152C221.595 13.176 222.987 14.584 223.979 16.376C225.003 18.136 225.515 20.104 225.515 22.28C225.515 22.632 225.499 23 225.467 23.384C225.467 23.768 225.451 24.168 225.419 24.584H207.323C207.451 26.44 208.091 27.896 209.243 28.952C210.427 30.008 211.851 30.536 213.515 30.536C214.763 30.536 215.803 30.264 216.635 29.72C217.499 29.144 218.139 28.408 218.555 27.512H224.795C224.347 29.016 223.595 30.392 222.539 31.64C221.515 32.856 220.235 33.816 218.699 34.52C217.195 35.224 215.483 35.576 213.563 35.576ZM213.611 15.608C212.107 15.608 210.779 16.04 209.627 16.904C208.475 17.736 207.739 19.016 207.419 20.744H219.275C219.179 19.176 218.603 17.928 217.547 17C216.491 16.072 215.179 15.608 213.611 15.608Z" fill="white"/>
<defs>
<linearGradient id="paint0_linear_55_2" x1="15.3335" y1="4.33333" x2="32.3335" y2="26.5" gradientUnits="userSpaceOnUse">
<stop stop-color="#175CE1" stop-opacity="0.71"/>
<stop offset="1" stop-color="#A75FD2" stop-opacity="0.94"/>
</linearGradient>
</defs>
</svg>
