<svg width="24" height="24" viewBox="0 0 24 24" fill="none" xmlns="http://www.w3.org/2000/svg">
<path d="M17.621 10.752C17.4168 10.752 17.2209 10.6709 17.0765 10.5265C16.9321 10.3821 16.851 10.1862 16.851 9.982C16.851 9.612 16.481 8.842 15.861 8.172C15.251 7.522 14.581 7.142 14.021 7.142C13.8168 7.142 13.6209 7.06088 13.4765 6.91647C13.3321 6.77207 13.251 6.57622 13.251 6.372C13.251 5.952 13.601 5.602 14.021 5.602C15.021 5.602 16.071 6.142 16.991 7.112C17.851 8.022 18.401 9.152 18.401 9.972C18.401 10.402 18.051 10.752 17.621 10.752ZM21.231 10.75C21.0268 10.75 20.8309 10.6689 20.6865 10.5245C20.5421 10.3801 20.461 10.1842 20.461 9.98C20.461 6.43 17.571 3.55 14.031 3.55C13.8268 3.55 13.6309 3.46888 13.4865 3.32447C13.3421 3.18007 13.261 2.98422 13.261 2.78C13.261 2.36 13.601 2 14.021 2C18.421 2 22.001 5.58 22.001 9.98C22.001 10.4 21.651 10.75 21.231 10.75ZM11.051 14.95L9.20098 16.8C8.81098 17.19 8.19098 17.19 7.79098 16.81C7.68098 16.7 7.57098 16.6 7.46098 16.49C6.44974 15.472 5.51708 14.3789 4.67098 13.22C3.85098 12.08 3.19098 10.94 2.71098 9.81C2.24098 8.67 2.00098 7.58 2.00098 6.54C2.00098 5.86 2.12098 5.21 2.36098 4.61C2.60098 4 2.98098 3.44 3.51098 2.94C4.15098 2.31 4.85098 2 5.59098 2C5.87098 2 6.15098 2.06 6.40098 2.18C6.66098 2.3 6.89098 2.48 7.07098 2.74L9.39098 6.01C9.57098 6.26 9.70098 6.49 9.79098 6.71C9.88098 6.92 9.93098 7.13 9.93098 7.32C9.93098 7.56 9.86098 7.8 9.72098 8.03C9.59098 8.26 9.40098 8.5 9.16098 8.74L8.40098 9.53C8.29098 9.64 8.24098 9.77 8.24098 9.93C8.24098 10.01 8.25098 10.08 8.27098 10.16C8.30098 10.24 8.33098 10.3 8.35098 10.36C8.53098 10.69 8.84098 11.12 9.28098 11.64C9.73098 12.16 10.211 12.69 10.731 13.22C10.831 13.32 10.941 13.42 11.041 13.52C11.441 13.91 11.451 14.55 11.051 14.95ZM21.971 18.33C21.9697 18.7074 21.8843 19.0798 21.721 19.42C21.551 19.78 21.331 20.12 21.041 20.44C20.551 20.98 20.011 21.37 19.401 21.62C19.391 21.62 19.381 21.63 19.371 21.63C18.781 21.87 18.141 22 17.451 22C16.431 22 15.341 21.76 14.191 21.27C13.041 20.78 11.891 20.12 10.751 19.29C10.361 19 9.97098 18.71 9.60098 18.4L12.871 15.13C13.151 15.34 13.401 15.5 13.611 15.61C13.661 15.63 13.721 15.66 13.791 15.69C13.871 15.72 13.951 15.73 14.041 15.73C14.211 15.73 14.341 15.67 14.451 15.56L15.211 14.81C15.461 14.56 15.701 14.37 15.931 14.25C16.161 14.11 16.391 14.04 16.641 14.04C16.831 14.04 17.031 14.08 17.251 14.17C17.471 14.26 17.701 14.39 17.951 14.56L21.261 16.91C21.521 17.09 21.701 17.3 21.811 17.55C21.911 17.8 21.971 18.05 21.971 18.33Z" fill="white"/>
</svg>
